<svg width="35" height="35" viewBox="0 0 35 35" fill="none" xmlns="http://www.w3.org/2000/svg">
<g clip-path="url(#clip0_272_35)">
<path d="M27.1441 0H7.85591C3.51721 0 0 3.51721 0 7.85591V27.1441C0 31.4828 3.51721 35 7.85591 35H27.1441C31.4828 35 35 31.4828 35 27.1441V7.85591C35 3.51721 31.4828 0 27.1441 0Z" fill="url(#paint0_linear_272_35)"/>
<path d="M12.1232 6.06165H23.0342C23.2766 6.18288 23.6403 6.18288 23.8828 6.30411C24.9468 6.47655 25.9416 6.94231 26.7554 7.64905C27.5692 8.35578 28.1698 9.27549 28.4897 10.3048C28.6687 10.898 28.7905 11.5069 28.8534 12.1233V22.7918C28.6801 24.1439 28.1808 25.4336 27.3986 26.55C26.7275 27.3275 25.8862 27.9398 24.94 28.3393C23.9939 28.7388 22.9683 28.9148 21.9431 28.8535H12.8506C11.228 28.9322 9.63253 28.4148 8.36498 27.3987C7.59418 26.7327 6.9859 25.8993 6.58667 24.9621C6.18743 24.025 6.00781 23.0089 6.06155 21.9917V13.5054C6.04152 12.8967 6.08213 12.2875 6.18278 11.6869C6.3052 10.444 6.81624 9.27127 7.64326 8.33542C8.47029 7.39958 9.57123 6.74819 10.7896 6.47384L12.1232 6.06165ZM8.36498 17.5788V22.3069C8.31329 22.909 8.39384 23.5151 8.60098 24.0828C8.80813 24.6505 9.13686 25.166 9.56417 25.5933C9.99147 26.0206 10.507 26.3494 11.0747 26.5565C11.6424 26.7636 12.2485 26.8442 12.8506 26.7925C16.0027 26.9137 19.1547 26.9137 22.3068 26.7925C25.0951 26.7925 26.6712 25.0952 26.7924 22.3069C26.9136 19.1548 26.9136 16.0028 26.7924 12.8507C26.8238 12.2534 26.7293 11.6561 26.515 11.0976C26.3007 10.5392 25.9714 10.032 25.5484 9.60908C25.1254 9.18612 24.6183 8.8568 24.0598 8.64249C23.5014 8.42818 22.9041 8.33366 22.3068 8.36507C19.1547 8.24384 16.0027 8.24384 12.8506 8.36507C12.2485 8.31338 11.6424 8.39393 11.0747 8.60108C10.507 8.80822 9.99147 9.13696 9.56417 9.56426C9.13686 9.99157 8.80813 10.5071 8.60098 11.0748C8.39384 11.6425 8.31329 12.2486 8.36498 12.8507V17.5788Z" fill="white"/>
<path d="M11.6868 17.6273C11.69 16.0528 12.3169 14.5437 13.4302 13.4303C14.5436 12.317 16.0527 11.6901 17.6272 11.6869C19.193 11.7179 20.686 12.3537 21.7934 13.4611C22.9008 14.5685 23.5366 16.0615 23.5676 17.6273C23.5644 19.2018 22.9375 20.7109 21.8242 21.8243C20.7108 22.9376 19.2017 23.5645 17.6272 23.5677C16.0614 23.5367 14.5684 22.9009 13.461 21.7935C12.3536 20.6861 11.7178 19.1931 11.6868 17.6273ZM17.6272 13.8691C16.8908 13.8571 16.1677 14.0653 15.5504 14.4669C14.9332 14.8686 14.4499 15.4454 14.1625 16.1235C13.8752 16.8015 13.7969 17.55 13.9376 18.2728C14.0783 18.9957 14.4317 19.6601 14.9525 20.1808C15.4732 20.7016 16.1376 21.0549 16.8604 21.1957C17.5833 21.3364 18.3317 21.2581 19.0098 20.9707C19.6879 20.6834 20.2647 20.2001 20.6663 19.5828C21.068 18.9656 21.2762 18.2424 21.2642 17.5061C21.2642 16.5415 20.881 15.6164 20.1989 14.9343C19.5169 14.2523 18.5918 13.8691 17.6272 13.8691Z" fill="white"/>
<path d="M22.234 11.4444C22.2272 11.2515 22.2602 11.0593 22.331 10.8797C22.4017 10.7002 22.5086 10.5371 22.6451 10.4006C22.7815 10.2641 22.9446 10.1572 23.1242 10.0865C23.3037 10.0158 23.4959 9.9828 23.6888 9.98958C24.0662 10.0151 24.4216 10.1766 24.6891 10.4441C24.9566 10.7116 25.1181 11.0669 25.1436 11.4444C25.1436 11.8302 24.9903 12.2002 24.7175 12.4731C24.4447 12.7459 24.0747 12.8992 23.6888 12.8992C23.303 12.8992 22.9329 12.7459 22.6601 12.4731C22.3873 12.2002 22.234 11.8302 22.234 11.4444Z" fill="white"/>
</g>
<defs>
<linearGradient id="paint0_linear_272_35" x1="-2.23069" y1="36.9397" x2="38.9886" y2="-3.67336" gradientUnits="userSpaceOnUse">
<stop stop-color="#FED576"/>
<stop offset="0.26" stop-color="#F47133"/>
<stop offset="0.61" stop-color="#BC3081"/>
<stop offset="1" stop-color="#4C63D2"/>
</linearGradient>
<clipPath id="clip0_272_35">
<rect width="35" height="35" fill="white"/>
</clipPath>
</defs>
</svg>
